<?xml version="1.0" encoding="utf-8" ?><svg xmlns="http://www.w3.org/2000/svg" xmlns:xlink="http://www.w3.org/1999/xlink" width="1290" height="934" viewBox="0 0 1290 934"><path d="M276.742 249.833C454.291 141.56 527.297 334.95 594.653 460.937C602.718 475.783 610.977 490.523 619.428 505.154C623.158 511.521 629.148 520.532 632.326 526.771C633.297 468.549 633.785 410.32 633.789 352.09L634.539 304.227C634.916 282.89 639.084 262.171 617.198 250.637C632.979 250.62 649.703 250.326 665.409 250.729C657.328 255.679 653.196 259.802 650.884 269.369C647.91 281.675 648.359 294.861 648.356 307.47C648.385 318.354 648.283 329.238 648.049 340.119L645.709 506.761C645.445 520.249 645.647 533.824 645.173 547.29C691.861 627.011 777.94 675.28 864.656 627.053C865.664 626.493 869.438 624.287 870.309 624.537C866.036 628.45 856.785 632.948 851.517 635.854C822.053 652.106 792.946 660.799 759.256 659.408C678.67 656.078 634.985 603.312 595.309 539.407C550 466.431 519.557 385.858 472.389 314.069L473.59 467.254C473.728 498.767 472.02 530.443 475.363 561.821C476.716 574.519 480.519 577.708 490.907 584.459C474.912 584.527 457.392 584.904 441.523 584.227C448.721 580.809 452.897 577.387 455.51 569.462C461.247 552.057 459.974 529.874 459.929 511.581L459.834 466.607L458.54 295.446C438.554 265.256 408.871 237.995 372.425 230.435C339.905 223.69 306.289 235.315 277.954 250.848L276.742 249.833Z"/><path d="M666.787 646.582C674.011 650.176 689.038 660.131 696.394 664.757C691.124 673.883 685.09 684.099 680.883 693.708C740.651 696.711 783.229 724.888 834.8 750.33C901.372 783.174 980.17 793.888 1044.33 749.992C1055.58 742.293 1064.81 734.13 1075.49 725.677C1062.62 741.495 1052.53 751.244 1036.78 764.023C1024.86 772.629 1013.7 780.098 1000.15 785.884C929.318 816.127 859.335 795.449 794.097 762.074C767.331 748.679 741.21 733.401 713.409 722.194C688.541 712.169 659.558 707.485 633.408 715.176C624.518 717.791 616.337 721.52 607.887 725.233C618.681 717.641 629.564 711.393 636.873 700.109C648.033 682.881 657.298 664.756 666.787 646.582Z"/><path d="M688.996 409.352L838.598 409.525C833.647 419.955 826.273 432.482 820.565 442.766L795.184 488.898L726.846 613.603C723.41 611.699 716.786 606.664 713.332 604.162C707.802 600.075 702.244 596.027 696.659 592.016C704.115 575.444 715.653 556.107 724.339 539.684C746.051 499.16 767.496 458.495 788.675 417.69C762.814 418.507 736.576 417.433 710.939 421C692.799 423.524 687.438 437.309 676.407 449.764C678.15 439.656 685.378 419.986 688.996 409.352Z"/><path d="M742.525 275.469C757.76 275.027 771.447 283.979 767 301.153C764.201 311.962 752.296 318.664 743.061 323.734C750.348 333.196 764.062 346.619 772.698 355.182C773.034 354.64 773.365 354.095 773.693 353.548C792.07 322.836 774.744 328.028 772.773 320.266L773.427 319.525C778.051 318.983 803.026 318.388 805.355 321.163C803.238 323.874 795.73 326.553 794.254 329.089C788.033 339.782 783.477 349.023 776.001 358.985C779.2 362.606 783.497 366.845 786.91 370.389C795.294 379.311 801.998 373.905 805.953 379.031C806.063 381.512 806.355 380.615 805.105 382.599C799.941 384.256 786.121 383.551 780.398 382.984C776.06 379.166 770.852 373.567 766.709 369.329C763.048 373.159 757.838 377.217 753.157 379.661C743.672 384.528 732.652 385.469 722.479 382.282C694.884 373.479 696.186 341.034 720.129 328.722C722.334 327.588 724.537 326.483 726.772 325.401C710.668 303.011 709.913 278.47 742.525 275.469ZM749.837 373.553C754.675 371.698 759.272 369.267 763.528 366.312C757.388 359.218 750.557 352.015 744.3 344.983C741.527 341.867 732.148 330.628 729.476 328.696C722.586 334.529 717.296 339.884 716.521 349.475C715.995 355.728 717.965 361.936 722 366.742C729.364 375.366 739.506 375.374 749.837 373.553ZM744.021 317.382C748.813 313.671 751.211 311.852 753.86 306.3C759.444 294.597 755.695 279.07 739.667 280.956C734.774 283.22 732.247 284.633 730.114 290.075C726.848 298.405 731.282 314.636 739.297 318.84C741.973 318.939 741.298 318.798 744.021 317.382Z"/><path d="M523.199 854.211C529.659 854.305 534.814 854.435 540.503 857.946C545.475 861.034 548.998 865.99 550.281 871.699C553.916 887.295 543.975 898.153 529.254 901.274C495.721 902.737 489.711 859.651 523.199 854.211ZM529.874 893.405C538.646 891.318 544.035 882.481 541.873 873.728C539.711 864.975 530.828 859.662 522.093 861.897C513.461 864.106 508.224 872.86 510.36 881.509C512.496 890.158 521.207 895.468 529.874 893.405Z"/><path d="M332.775 854.688C349.635 852.615 356.823 866.725 340.624 876.466C342.938 879.206 346.617 882.599 349.257 885.18L351.645 876.294C353.841 877.178 355.955 878.203 358.098 879.208C357.118 882.607 355.67 886.34 354.456 889.698C356.657 891.562 358.713 893.727 360.754 895.777L356.487 901.137C354.493 899.741 351.981 897.434 350.073 895.78C331.022 910.644 304.267 892.955 328.349 875.164C327.305 873.566 326.34 871.917 325.459 870.224C321.21 861.88 325.356 857.668 332.775 854.688ZM339.499 894.908C341.445 894.002 342.911 893.652 343.828 891.821C343.96 886.917 336.643 880.886 332.585 878.934C322.955 888.478 325.757 896.571 339.499 894.908ZM339.202 871.114C341.075 870.313 342.369 868.564 342.588 866.539C342.806 864.514 341.915 862.529 340.257 861.347C338.598 860.165 336.431 859.97 334.588 860.837C331.807 862.145 330.587 865.439 331.846 868.242C333.105 871.045 336.377 872.322 339.202 871.114Z"/><path d="M258.044 854.557L265.637 854.604C273.295 863.235 282.639 875.808 290.401 885.202C290.247 875.012 290.192 864.821 290.237 854.63L298.624 854.627C298.628 863.373 299.296 893.978 297.647 900.669C292 900.541 291.343 899.57 287.591 895.141C280.327 886.566 273.358 877.372 266.462 868.528L266.395 900.53L258.051 900.534C257.829 885.209 257.827 869.882 258.044 854.557Z"/><path d="M589.548 853.568C598.61 853.164 602.926 855.54 610.068 860.553L605.365 865.668C599.496 862.79 593.734 860.053 587.001 861.807C582.815 862.897 579.302 865.735 577.357 869.598C573.267 877.549 576.241 888.758 584.713 892.492C590.356 894.979 595.811 893.592 601.313 891.639C601.311 887.243 601.192 882.625 601.682 878.275C604.119 877.992 606.15 877.404 608.147 878.575C610.834 882.052 609.458 890.452 609.319 895.653C599.347 901.919 587.249 904.771 577 897.376C571.482 893.332 567.795 887.264 566.747 880.504C564.22 864.695 575.031 855.742 589.548 853.568Z"/><path d="M376.302 854.586C386.499 854.389 401.727 853.85 412.005 854.99C413.088 855.111 413.005 855.564 413.613 856.698C413.593 863.858 393.112 885.945 387.224 893.137C392.056 893.192 410.011 892.329 413.114 893.994C414.062 896.15 413.596 898.015 413.351 900.424C408.024 900.796 381.686 900.9 376.931 900.292C372.206 895.097 398.312 867.029 402.77 862.136C393.956 862.109 385.142 861.946 376.333 861.648C376.214 859.717 376.302 856.608 376.302 854.586Z"/><path d="M858.507 854.172C868.342 853.784 870.971 854.44 879.847 858.395L876.838 865.31C872.436 863.692 865.969 860.661 861.254 861.089C857.544 861.426 853.733 863.88 854.86 868.132C859.497 873.432 868.574 873.729 873.868 877.531C889.152 888.507 879.058 898.589 865.253 901.229C856.006 901.377 852.334 900.426 844.346 895.906L847.199 889.041C851.913 891.333 856.269 893.585 861.609 893.846C865.898 894.056 872.57 893.176 871.986 887.539C868.763 882.96 860.416 881.573 855.445 879.183C839.635 871.582 843.156 858.907 858.507 854.172Z"/><path d="M671.461 854.215C681.232 853.787 683.968 854.341 692.91 858.342L689.834 865.292C682.621 862.547 672.751 857.889 667.047 865.641C666.143 871.251 676.948 873.149 681.091 874.763C688.251 877.553 690.439 878.137 693.945 885.243L693.363 892.406C688.629 899.023 685.556 899.99 677.805 901.246C669.455 901.381 664.411 899.99 657.425 895.649L660.569 889.1C668.424 892.734 674.649 896.544 683.1 892.266C684.911 891.349 685.059 891.219 685.58 889.466C683.413 884.059 674.206 881.719 669.298 879.358C653.102 871.567 655.168 859.903 671.461 854.215Z"/><path d="M1040.17 854.122C1051.49 853.405 1055.04 854.097 1064.23 860.66C1062.99 862.489 1060.67 865.187 1059.2 866.99C1050.62 861.278 1039.69 856.833 1032.71 868.229C1030.13 872.524 1029.43 877.688 1030.77 882.514C1034 894.188 1044 894.82 1053.78 891.731L1059.48 888.188L1064.77 893.847C1055.95 900.875 1045.06 904.228 1034.46 898.911C1028.58 895.929 1024.14 890.717 1022.13 884.438C1017.31 869.52 1026.07 858.343 1040.17 854.122Z"/><path d="M805.815 854.146C817.34 853.172 820.69 854.162 830.022 860.77L824.826 866.778C823.829 866.073 822.816 865.392 821.788 864.736C792.713 846.364 783.896 902.742 819.736 891.944L825.203 888.025L830.417 894.04C821.596 900.468 812.298 904.227 801.606 899.392C795.544 896.607 790.844 891.518 788.55 885.255C782.983 870.095 791.896 859.132 805.815 854.146Z"/><path d="M706.612 854.626C712.095 854.458 741.827 853.472 744.368 856.061C744.725 858.13 744.693 858.419 744.307 860.488C741.675 862.724 733.61 862.034 729.887 861.987C729.602 869.382 729.71 877.28 729.689 884.718L729.876 900.478L721.299 900.527C721.071 887.937 721.265 874.75 721.257 862.111C716.447 861.872 711.429 863.185 707.757 860.595C706.198 857.967 706.7 858.051 706.612 854.626Z"/><path d="M927.763 854.65L936.035 854.6C936.306 867.241 936.153 880.44 936.136 893.104C940.656 893.037 956.814 892.26 959.827 893.997C960.893 896.126 960.619 898.092 960.601 900.529L927.693 900.536L927.763 854.65Z"/><path d="M976.327 854.548L984.556 854.645L984.525 893.109C989.588 893.035 1003.74 892.476 1007.65 893.865C1008.72 895.803 1008.47 898.21 1008.51 900.529C997.848 900.653 986.971 900.544 976.294 900.544L976.327 854.548Z"/><path d="M456.031 854.617L464.263 854.613L464.196 893.175L488.716 893.108L488.639 900.556L456.032 900.517C455.874 885.299 456.021 869.854 456.031 854.617Z"/><path d="M631.361 854.6L639.743 854.618C640.14 869.473 639.872 885.587 639.832 900.507L631.332 900.531L631.361 854.6Z"/><path d="M760.437 854.571L769.08 854.631C768.403 869.709 769.101 885.191 768.599 900.488L760.453 900.539L760.437 854.571Z"/><path d="M277.954 250.848C274.971 252.731 267.418 257.114 264.339 258.216C267.032 255.143 273.03 251.939 276.742 249.833L277.954 250.848Z"/></svg>